<svg width="28" height="28" viewBox="0 0 28 28" fill="none" xmlns="http://www.w3.org/2000/svg">
<path d="M18.0833 5.83331C19.7219 5.83331 20.5411 5.83331 21.1296 6.22655C21.3844 6.39679 21.6032 6.61554 21.7734 6.87032C22.1666 7.45884 22.1666 8.27811 22.1666 9.91665V21C22.1666 23.1999 22.1666 24.2998 21.4832 24.9832C20.7998 25.6666 19.6999 25.6666 17.5 25.6666H10.5C8.30009 25.6666 7.20015 25.6666 6.51673 24.9832C5.83331 24.2998 5.83331 23.1999 5.83331 21V9.91665C5.83331 8.27811 5.83331 7.45884 6.22655 6.87032C6.39679 6.61554 6.61554 6.39679 6.87032 6.22655C7.45884 5.83331 8.27811 5.83331 9.91665 5.83331" stroke="white" stroke-width="2"/>
<path d="M10.5 5.83333C10.5 4.54467 11.5447 3.5 12.8333 3.5H15.1667C16.4553 3.5 17.5 4.54467 17.5 5.83333C17.5 7.122 16.4553 8.16667 15.1667 8.16667H12.8333C11.5447 8.16667 10.5 7.122 10.5 5.83333Z" stroke="white" stroke-width="2"/>
<path d="M10.5 14L17.5 14" stroke="white" stroke-width="2" stroke-linecap="round"/>
<path d="M10.5 18.6667L15.1667 18.6667" stroke="white" stroke-width="2" stroke-linecap="round"/>
</svg>
