<svg width="31" height="31" viewBox="0 0 31 31" fill="none" xmlns="http://www.w3.org/2000/svg">
<path d="M17.8232 2.81836L18.4682 2.05415L18.4681 2.05407L17.8232 2.81836ZM17.874 2.86523L18.5703 2.14742L18.5702 2.14732L17.874 2.86523ZM18.2588 4.3418L17.2638 4.4413L18.2588 4.3418ZM19.002 6.91309L18.5729 7.81637L18.5732 7.81652L19.002 6.91309ZM19.0957 6.95215L18.7603 7.89421L18.761 7.89448L19.0957 6.95215ZM21.4385 5.65918L22.0716 6.4332L21.4385 5.65918ZM22.7549 4.88672L22.7704 3.88684L22.7702 3.88684L22.7549 4.88672ZM22.8242 4.89062L22.9092 3.89424L22.9086 3.89419L22.8242 4.89062ZM24.0566 5.79004L24.7637 5.08293L24.0566 5.79004ZM25.21 6.94336L24.5029 7.65047L25.21 6.94336ZM26.1094 8.17578L27.1058 8.09129L27.1058 8.09108L26.1094 8.17578ZM26.1123 8.24512L27.1122 8.2302L27.1122 8.22978L26.1123 8.24512ZM25.3408 9.56152L24.567 8.92817L25.3408 9.56152ZM24.0479 11.9033L23.1055 12.2381L23.1056 12.2382L24.0479 11.9033ZM24.0869 11.998L23.1837 12.4273L23.1839 12.4277L24.0869 11.998ZM26.6582 12.7412L26.7579 11.7462L26.6582 12.7412ZM28.1348 13.126L28.8528 12.43L28.8527 12.4299L28.1348 13.126ZM28.1807 13.1768L28.9448 12.5316L28.9446 12.5315L28.1807 13.1768ZM28.1807 17.8232L28.9445 18.4686L28.9448 18.4683L28.1807 17.8232ZM28.1348 17.874L28.8526 18.5702L28.8527 18.5702L28.1348 17.874ZM26.6582 18.2588L26.7577 19.2538L26.6582 18.2588ZM24.0869 19.002L23.1837 18.5729L23.1836 18.573L24.0869 19.002ZM24.0479 19.0957L23.1057 18.7604L23.1056 18.7607L24.0479 19.0957ZM25.3408 21.4385L24.5669 22.0717L25.3408 21.4385ZM26.1123 22.7549L27.1122 22.7703L27.1122 22.77L26.1123 22.7549ZM26.1094 22.8242L27.1058 22.9091L27.1058 22.9086L26.1094 22.8242ZM22.8242 26.1094L22.9086 27.1058L22.9091 27.1058L22.8242 26.1094ZM22.7549 26.1123L22.77 27.1122L22.7703 27.1122L22.7549 26.1123ZM21.4385 25.3408L22.0717 24.5669L21.4385 25.3408ZM19.0957 24.0479L18.7607 23.1056L18.7604 23.1057L19.0957 24.0479ZM19.002 24.0869L18.573 23.1836L18.5729 23.1837L19.002 24.0869ZM18.2588 26.6582L19.2538 26.7577L18.2588 26.6582ZM17.874 28.1348L18.5702 28.8527L18.5702 28.8526L17.874 28.1348ZM17.8232 28.1807L18.4683 28.9448L18.4686 28.9445L17.8232 28.1807ZM13.1768 28.1807L12.5315 28.9446L12.5316 28.9448L13.1768 28.1807ZM13.126 28.1348L12.4299 28.8527L12.43 28.8528L13.126 28.1348ZM12.7412 26.6582L11.7462 26.7579L12.7412 26.6582ZM11.998 24.0869L12.4277 23.1839L12.4273 23.1837L11.998 24.0869ZM11.9033 24.0479L12.2382 23.1056L12.2381 23.1055L11.9033 24.0479ZM9.56152 25.3408L8.92817 24.567L9.56152 25.3408ZM8.24512 26.1123L8.22978 27.1122L8.2302 27.1122L8.24512 26.1123ZM8.17578 26.1094L8.09108 27.1058L8.09129 27.1058L8.17578 26.1094ZM5.79004 24.0566L5.08293 24.7637L5.79004 24.0566ZM4.89062 22.8242L3.89419 22.9086L3.89424 22.9092L4.89062 22.8242ZM4.88672 22.7549L3.88684 22.7702L3.88684 22.7704L4.88672 22.7549ZM5.65918 21.4385L6.4332 22.0716L5.65918 21.4385ZM6.95215 19.0957L7.89449 18.761L7.89421 18.7603L6.95215 19.0957ZM6.91309 19.002L7.81652 18.5732L7.81637 18.5729L6.91309 19.002ZM4.3418 18.2588L4.4413 17.2638L4.3418 18.2588ZM2.86523 17.874L2.14732 18.5702L2.14742 18.5703L2.86523 17.874ZM2.81836 17.8232L2.05407 18.4681L2.05415 18.4682L2.81836 17.8232ZM2.58301 14.6846H1.58301H2.58301ZM2.81934 13.1768L2.0554 12.5315L2.05533 12.5315L2.81934 13.1768ZM2.86523 13.126L2.1473 12.4299L2.14709 12.4301L2.86523 13.126ZM4.3418 12.7412L4.24213 11.7462L4.3418 12.7412ZM6.91406 11.9971L7.81749 12.4258L7.81763 12.4255L6.91406 11.9971ZM6.95215 11.9043L7.8941 12.2401L7.8942 12.2398L6.95215 11.9043ZM5.65918 9.56055L4.88525 10.1938L5.65918 9.56055ZM4.8877 8.24414L3.88781 8.22873L3.88781 8.22877L4.8877 8.24414ZM4.89062 8.17578L3.89417 8.09162L3.89414 8.09202L4.89062 8.17578ZM8.17578 4.88965L8.09132 3.89322L8.09094 3.89325L8.17578 4.88965ZM8.24512 4.88574L8.23002 3.88586L8.22971 3.88586L8.24512 4.88574ZM9.56152 5.6582L8.92828 6.43215L9.56152 5.6582ZM11.9033 6.95117L12.2377 7.89362L12.2384 7.89336L11.9033 6.95117ZM11.998 6.91211L12.4272 7.81536L12.4273 7.81528L11.998 6.91211ZM12.7412 4.3418L13.7362 4.4415L12.7412 4.3418ZM13.126 2.86523L12.4299 2.14723L12.4298 2.14738L13.126 2.86523ZM13.1768 2.81836L12.532 2.05398L12.5319 2.05407L13.1768 2.81836ZM14.6836 2.58301V1.58301V2.58301ZM15.5 10.333V9.33301V9.33301V10.333ZM10.333 15.5H9.33301V15.5H10.333ZM15.5 20.667V21.667V21.667V20.667ZM20.667 15.5H21.667V15.5H20.667ZM16.3154 2.58301V3.58301C16.7503 3.58301 16.9852 3.58468 17.1499 3.60486C17.2889 3.62189 17.2451 3.63892 17.1784 3.58265L17.8232 2.81836L18.4681 2.05407C18.122 1.76206 17.7336 1.66142 17.3932 1.61971C17.0785 1.58115 16.6991 1.58301 16.3154 1.58301V2.58301ZM17.8232 2.81836L17.1783 3.58256C17.1709 3.57638 17.1668 3.57248 17.1671 3.57279C17.1672 3.57287 17.168 3.57362 17.1699 3.5754C17.1718 3.57725 17.1742 3.57958 17.1779 3.58314L17.874 2.86523L18.5702 2.14732C18.5544 2.13208 18.5153 2.09387 18.4682 2.05415L17.8232 2.81836ZM17.874 2.86523L17.1778 3.58305C17.1155 3.52267 17.1281 3.47769 17.1589 3.61386C17.1954 3.77541 17.2205 4.00882 17.2638 4.4413L18.2588 4.3418L19.2538 4.24229C19.2156 3.86015 19.1796 3.48255 19.1097 3.17311C19.034 2.83828 18.8949 2.46234 18.5703 2.14742L17.874 2.86523ZM18.2588 4.3418L17.2638 4.4413C17.3382 5.18568 17.4026 5.8533 17.5262 6.35713C17.6495 6.85958 17.8992 7.49635 18.5729 7.81637L19.002 6.91309L19.431 6.0098C19.5949 6.08766 19.5507 6.21513 19.4686 5.88064C19.3869 5.54753 19.3347 5.05059 19.2538 4.24229L18.2588 4.3418ZM19.002 6.91309L18.5732 7.81652C18.6299 7.84344 18.6928 7.87018 18.7603 7.89421L19.0957 6.95215L19.4311 6.01008L19.4307 6.00965L19.002 6.91309ZM19.0957 6.95215L18.761 7.89448C19.4637 8.14405 20.0903 7.86985 20.5323 7.60183C20.9756 7.33298 21.493 6.90656 22.0716 6.4332L21.4385 5.65918L20.8053 4.88516C20.1767 5.39937 19.7885 5.71383 19.4951 5.89176C19.2004 6.07052 19.2592 5.94903 19.4304 6.00981L19.0957 6.95215ZM21.4385 5.65918L22.0716 6.4332C22.4082 6.15792 22.5911 6.0105 22.7314 5.92187C22.8498 5.84705 22.8267 5.88794 22.7396 5.8866L22.7549 4.88672L22.7702 3.88684C22.3175 3.8799 21.9531 4.04786 21.6631 4.23109C21.3949 4.40051 21.1024 4.64212 20.8053 4.88516L21.4385 5.65918ZM22.7549 4.88672L22.7394 5.8866L22.7399 5.88706L22.8242 4.89062L22.9086 3.89419C22.877 3.89152 22.8272 3.88772 22.7704 3.88684L22.7549 4.88672ZM22.8242 4.89062L22.7392 5.88701C22.6527 5.87962 22.634 5.83683 22.7443 5.92304C22.875 6.02512 23.0423 6.18994 23.3495 6.49715L24.0566 5.79004L24.7637 5.08293C24.4924 4.81154 24.2255 4.54218 23.9756 4.34696C23.7054 4.13587 23.3598 3.93267 22.9092 3.89424L22.8242 4.89062ZM24.0566 5.79004L23.3495 6.49715L24.5029 7.65047L25.21 6.94336L25.9171 6.23625L24.7637 5.08293L24.0566 5.79004ZM25.21 6.94336L24.5029 7.65047C24.8102 7.95777 24.975 8.12504 25.0771 8.25571C25.1632 8.36598 25.1203 8.34719 25.113 8.26048L26.1094 8.17578L27.1058 8.09108C27.0675 7.64027 26.8642 7.29461 26.6531 7.02437C26.4579 6.77451 26.1884 6.50762 25.9171 6.23625L25.21 6.94336ZM26.1094 8.17578L25.113 8.26028C25.1123 8.25276 25.1122 8.24843 25.1122 8.24878C25.1122 8.24934 25.1123 8.2523 25.1124 8.26045L26.1123 8.24512L27.1122 8.22978C27.1118 8.20166 27.1108 8.15013 27.1058 8.09129L26.1094 8.17578ZM26.1123 8.24512L25.1124 8.26004C25.1111 8.17403 25.1514 8.15163 25.0771 8.26957C24.9889 8.40937 24.8418 8.59236 24.567 8.92817L25.3408 9.56152L26.1147 10.1949C26.3582 9.89728 26.5996 9.60479 26.769 9.3361C26.9521 9.04555 27.1189 8.68164 27.1122 8.2302L26.1123 8.24512ZM25.3408 9.56152L24.567 8.92817C24.0935 9.50669 23.667 10.0239 23.3981 10.467C23.1299 10.909 22.8559 11.5354 23.1055 12.2381L24.0479 11.9033L24.9902 11.5686C25.0509 11.7397 24.9295 11.7987 25.108 11.5045C25.2858 11.2114 25.6002 10.8234 26.1147 10.1949L25.3408 9.56152ZM24.0479 11.9033L23.1056 12.2382C23.1274 12.2996 23.1533 12.3632 23.1837 12.4273L24.0869 11.998L24.9901 11.5688L24.9901 11.5684L24.0479 11.9033ZM24.0869 11.998L23.1839 12.4277C23.5041 13.1008 24.1407 13.3503 24.6429 13.4735C25.1467 13.5971 25.8141 13.6617 26.5585 13.7362L26.6582 12.7412L26.7579 11.7462C25.9497 11.6652 25.4527 11.6129 25.1195 11.5311C24.7848 11.449 24.912 11.4047 24.9899 11.5684L24.0869 11.998ZM26.6582 12.7412L26.5585 13.7362C26.9913 13.7796 27.2247 13.8047 27.3863 13.8412C27.5225 13.872 27.4773 13.8845 27.4168 13.8221L28.1348 13.126L28.8527 12.4299C28.5377 12.105 28.1617 11.9659 27.8269 11.8903C27.5176 11.8205 27.1399 11.7845 26.7579 11.7462L26.6582 12.7412ZM28.1348 13.126L27.4167 13.822L27.4167 13.8221L28.1807 13.1768L28.9446 12.5315C28.916 12.4977 28.8855 12.4637 28.8528 12.43L28.1348 13.126ZM28.1807 13.1768L27.4166 13.8219C27.3608 13.7558 27.3777 13.7124 27.3948 13.8509C27.4151 14.0152 27.417 14.25 27.417 14.6846H28.417H29.417C29.417 14.3003 29.4187 13.9209 29.3798 13.6058C29.3377 13.265 29.2365 12.8772 28.9448 12.5316L28.1807 13.1768ZM28.417 14.6846H27.417V16.3154H28.417H29.417V14.6846H28.417ZM28.417 16.3154H27.417C27.417 16.7499 27.4151 16.9847 27.3948 17.149C27.3777 17.2876 27.3607 17.2443 27.4165 17.1782L28.1807 17.8232L28.9448 18.4683C29.2365 18.1228 29.3376 17.735 29.3797 17.3942C29.4186 17.0791 29.417 16.6998 29.417 16.3154H28.417ZM28.1807 17.8232L27.4168 17.1779L27.4169 17.1779L28.1348 17.874L28.8527 18.5702C28.8856 18.5362 28.9162 18.5022 28.9445 18.4686L28.1807 17.8232ZM28.1348 17.874L27.4169 17.1778C27.4773 17.1156 27.5223 17.1281 27.3862 17.1589C27.2247 17.1954 26.9913 17.2205 26.5587 17.2638L26.6582 18.2588L26.7577 19.2538C27.1399 19.2156 27.5175 19.1796 27.8269 19.1097C28.1618 19.034 28.5377 18.8949 28.8526 18.5702L28.1348 17.874ZM26.6582 18.2588L26.5587 17.2638C25.8142 17.3382 25.1465 17.4026 24.6427 17.5262C24.1402 17.6495 23.5037 17.8993 23.1837 18.5729L24.0869 19.002L24.9902 19.4311C24.9124 19.5949 24.785 19.5506 25.1193 19.4686C25.4523 19.3869 25.9492 19.3347 26.7577 19.2538L26.6582 18.2588ZM24.0869 19.002L23.1836 18.573C23.1565 18.63 23.1298 18.6927 23.1057 18.7604L24.0479 19.0957L24.99 19.431L24.9902 19.4309L24.0869 19.002ZM24.0479 19.0957L23.1056 18.7607C22.8558 19.4634 23.1297 20.09 23.3979 20.5322C23.6668 20.9755 24.0933 21.493 24.5669 22.0717L25.3408 21.4385L26.1148 20.8052C25.6003 20.1764 25.2858 19.7883 25.108 19.4951C24.9294 19.2007 25.0509 19.2596 24.9901 19.4307L24.0479 19.0957ZM25.3408 21.4385L24.5669 22.0717C24.8418 22.4078 24.989 22.5907 25.0772 22.7305C25.1515 22.8484 25.1111 22.8259 25.1124 22.7397L26.1123 22.7549L27.1122 22.77C27.119 22.3184 26.9521 21.9544 26.7689 21.6638C26.5996 21.3953 26.3582 21.1027 26.1148 20.8052L25.3408 21.4385ZM26.1123 22.7549L25.1124 22.7395C25.1123 22.7475 25.1122 22.7505 25.1122 22.7512C25.1122 22.7517 25.1123 22.7474 25.1129 22.7398L26.1094 22.8242L27.1058 22.9086C27.1108 22.8499 27.1118 22.7984 27.1122 22.7703L26.1123 22.7549ZM26.1094 22.8242L25.113 22.7394C25.1204 22.6528 25.1632 22.634 25.077 22.7443C24.9749 22.875 24.8101 23.0423 24.5029 23.3495L25.21 24.0566L25.9171 24.7637C26.1885 24.4924 26.4579 24.2255 26.6531 23.9756C26.8642 23.7054 27.0674 23.3598 27.1058 22.9091L26.1094 22.8242ZM25.21 24.0566L24.5029 23.3495L23.3495 24.5029L24.0566 25.21L24.7637 25.9171L25.9171 24.7637L25.21 24.0566ZM24.0566 25.21L23.3495 24.5029C23.0423 24.8101 22.875 24.9749 22.7443 25.077C22.634 25.1632 22.6528 25.1204 22.7394 25.113L22.8242 26.1094L22.9091 27.1058C23.3598 27.0674 23.7054 26.8642 23.9756 26.6531C24.2255 26.4579 24.4924 26.1885 24.7637 25.9171L24.0566 25.21ZM22.8242 26.1094L22.7398 25.1129C22.7474 25.1123 22.7517 25.1122 22.7512 25.1122C22.7505 25.1122 22.7475 25.1123 22.7395 25.1124L22.7549 26.1123L22.7703 27.1122C22.7984 27.1118 22.8499 27.1108 22.9086 27.1058L22.8242 26.1094ZM22.7549 26.1123L22.7397 25.1124C22.8259 25.1111 22.8484 25.1515 22.7305 25.0772C22.5907 24.989 22.4078 24.8418 22.0717 24.5669L21.4385 25.3408L20.8052 26.1148C21.1027 26.3582 21.3953 26.5996 21.6638 26.7689C21.9544 26.9521 22.3184 27.119 22.77 27.1122L22.7549 26.1123ZM21.4385 25.3408L22.0717 24.5669C21.493 24.0933 20.9755 23.6668 20.5322 23.3979C20.09 23.1297 19.4634 22.8558 18.7607 23.1056L19.0957 24.0479L19.4307 24.9901C19.2596 25.0509 19.2007 24.9294 19.4951 25.108C19.7883 25.2858 20.1764 25.6003 20.8052 26.1148L21.4385 25.3408ZM19.0957 24.0479L18.7604 23.1057C18.6927 23.1298 18.63 23.1565 18.573 23.1836L19.002 24.0869L19.4309 24.9902L19.431 24.99L19.0957 24.0479ZM19.002 24.0869L18.5729 23.1837C17.8993 23.5037 17.6495 24.1402 17.5262 24.6427C17.4026 25.1465 17.3382 25.8142 17.2638 26.5587L18.2588 26.6582L19.2538 26.7577C19.3347 25.9492 19.3869 25.4523 19.4686 25.1193C19.5506 24.785 19.5949 24.9124 19.4311 24.9902L19.002 24.0869ZM18.2588 26.6582L17.2638 26.5587C17.2205 26.9913 17.1954 27.2247 17.1589 27.3862C17.1281 27.5223 17.1156 27.4773 17.1778 27.4169L17.874 28.1348L18.5702 28.8526C18.8949 28.5377 19.034 28.1618 19.1097 27.8269C19.1796 27.5175 19.2156 27.1399 19.2538 26.7577L18.2588 26.6582ZM17.874 28.1348L17.1779 27.4169L17.1779 27.4168L17.8232 28.1807L18.4686 28.9445C18.5022 28.9162 18.5362 28.8856 18.5702 28.8527L17.874 28.1348ZM17.8232 28.1807L17.1782 27.4165C17.2443 27.3607 17.2876 27.3777 17.149 27.3948C16.9847 27.4151 16.7499 27.417 16.3154 27.417V28.417V29.417C16.6998 29.417 17.0791 29.4186 17.3942 29.3797C17.735 29.3376 18.1228 29.2365 18.4683 28.9448L17.8232 28.1807ZM16.3154 28.417V27.417H14.6846V28.417V29.417H16.3154V28.417ZM14.6846 28.417V27.417C14.25 27.417 14.0152 27.4151 13.8509 27.3948C13.7124 27.3777 13.7558 27.3608 13.8219 27.4166L13.1768 28.1807L12.5316 28.9448C12.8772 29.2365 13.265 29.3377 13.6058 29.3798C13.9209 29.4187 14.3003 29.417 14.6846 29.417V28.417ZM13.1768 28.1807L13.8221 27.4167L13.822 27.4167L13.126 28.1348L12.43 28.8528C12.4637 28.8855 12.4977 28.916 12.5315 28.9446L13.1768 28.1807ZM13.126 28.1348L13.8221 27.4168C13.8845 27.4773 13.872 27.5225 13.8412 27.3863C13.8047 27.2247 13.7796 26.9913 13.7362 26.5585L12.7412 26.6582L11.7462 26.7579C11.7845 27.1399 11.8205 27.5176 11.8903 27.8269C11.9659 28.1617 12.105 28.5377 12.4299 28.8527L13.126 28.1348ZM12.7412 26.6582L13.7362 26.5585C13.6617 25.8141 13.5971 25.1467 13.4735 24.6429C13.3503 24.1407 13.1008 23.5041 12.4277 23.1839L11.998 24.0869L11.5684 24.9899C11.4047 24.912 11.449 24.7848 11.5311 25.1195C11.6129 25.4527 11.6652 25.9497 11.7462 26.7579L12.7412 26.6582ZM11.998 24.0869L12.4273 23.1837C12.3632 23.1533 12.2996 23.1274 12.2382 23.1056L11.9033 24.0479L11.5684 24.9901L11.5688 24.9901L11.998 24.0869ZM11.9033 24.0479L12.2381 23.1055C11.5354 22.8559 10.909 23.1299 10.467 23.3981C10.0239 23.667 9.50669 24.0935 8.92817 24.567L9.56152 25.3408L10.1949 26.1147C10.8234 25.6002 11.2114 25.2858 11.5045 25.108C11.7987 24.9295 11.7397 25.0509 11.5686 24.9902L11.9033 24.0479ZM9.56152 25.3408L8.92817 24.567C8.59236 24.8418 8.40937 24.9889 8.26957 25.0771C8.15163 25.1514 8.17403 25.1111 8.26004 25.1124L8.24512 26.1123L8.2302 27.1122C8.68164 27.1189 9.04555 26.9521 9.3361 26.769C9.60479 26.5996 9.89728 26.3582 10.1949 26.1147L9.56152 25.3408ZM8.24512 26.1123L8.26045 25.1124C8.2523 25.1123 8.24934 25.1122 8.24878 25.1122C8.24843 25.1122 8.25276 25.1123 8.26028 25.113L8.17578 26.1094L8.09129 27.1058C8.15013 27.1108 8.20166 27.1118 8.22978 27.1122L8.24512 26.1123ZM8.17578 26.1094L8.26048 25.113C8.34719 25.1203 8.36598 25.1632 8.25571 25.0771C8.12504 24.975 7.95778 24.8102 7.65047 24.5029L6.94336 25.21L6.23625 25.9171C6.50762 26.1884 6.77452 26.4579 7.02437 26.6531C7.29461 26.8642 7.64027 27.0675 8.09108 27.1058L8.17578 26.1094ZM6.94336 25.21L7.65047 24.5029L6.49715 23.3495L5.79004 24.0566L5.08293 24.7637L6.23625 25.9171L6.94336 25.21ZM5.79004 24.0566L6.49715 23.3495C6.18994 23.0423 6.02512 22.875 5.92304 22.7443C5.83683 22.634 5.87962 22.6527 5.88701 22.7392L4.89062 22.8242L3.89424 22.9092C3.93267 23.3598 4.13587 23.7054 4.34696 23.9756C4.54218 24.2255 4.81154 24.4924 5.08293 24.7637L5.79004 24.0566ZM4.89062 22.8242L5.88706 22.7399L5.8866 22.7394L4.88672 22.7549L3.88684 22.7704C3.88772 22.8272 3.89152 22.877 3.89419 22.9086L4.89062 22.8242ZM4.88672 22.7549L5.8866 22.7396C5.88794 22.8267 5.84705 22.8498 5.92187 22.7314C6.0105 22.5911 6.15792 22.4082 6.4332 22.0716L5.65918 21.4385L4.88516 20.8053C4.64212 21.1024 4.40051 21.3949 4.23109 21.6631C4.04786 21.9531 3.8799 22.3175 3.88684 22.7702L4.88672 22.7549ZM5.65918 21.4385L6.4332 22.0716C6.90656 21.493 7.33298 20.9756 7.60183 20.5323C7.86985 20.0903 8.14405 19.4637 7.89448 18.761L6.95215 19.0957L6.00981 19.4304C5.94903 19.2592 6.07052 19.2004 5.89176 19.4951C5.71383 19.7885 5.39937 20.1767 4.88516 20.8053L5.65918 21.4385ZM6.95215 19.0957L7.89421 18.7603C7.87018 18.6928 7.84344 18.6299 7.81652 18.5732L6.91309 19.002L6.00965 19.4307L6.01008 19.4311L6.95215 19.0957ZM6.91309 19.002L7.81637 18.5729C7.49635 17.8992 6.85958 17.6495 6.35713 17.5262C5.8533 17.4026 5.18568 17.3382 4.4413 17.2638L4.3418 18.2588L4.24229 19.2538C5.05059 19.3347 5.54753 19.3869 5.88064 19.4686C6.21513 19.5507 6.08766 19.5949 6.0098 19.431L6.91309 19.002ZM4.3418 18.2588L4.4413 17.2638C4.00882 17.2205 3.77541 17.1954 3.61386 17.1589C3.47769 17.1281 3.52267 17.1155 3.58305 17.1778L2.86523 17.874L2.14742 18.5703C2.46234 18.8949 2.83828 19.034 3.17311 19.1097C3.48255 19.1796 3.86015 19.2156 4.24229 19.2538L4.3418 18.2588ZM2.86523 17.874L3.58314 17.1779C3.57958 17.1742 3.57725 17.1718 3.5754 17.1699C3.57362 17.168 3.57287 17.1672 3.57279 17.1671C3.57248 17.1668 3.57638 17.1709 3.58256 17.1783L2.81836 17.8232L2.05415 18.4682C2.09387 18.5153 2.13208 18.5544 2.14732 18.5702L2.86523 17.874ZM2.81836 17.8232L3.58265 17.1784C3.63892 17.2451 3.62189 17.2889 3.60486 17.1499C3.58468 16.9852 3.58301 16.7503 3.58301 16.3154H2.58301H1.58301C1.58301 16.6991 1.58115 17.0785 1.61971 17.3932C1.66142 17.7336 1.76206 18.122 2.05407 18.4681L2.81836 17.8232ZM2.58301 16.3154H3.58301V14.6846H2.58301H1.58301V16.3154H2.58301ZM2.58301 14.6846H3.58301C3.58301 14.2499 3.58486 14.0151 3.60514 13.8508C3.62222 13.7125 3.63916 13.7559 3.58334 13.822L2.81934 13.1768L2.05533 12.5315C1.76353 12.8771 1.6623 13.2649 1.62021 13.6058C1.58132 13.9208 1.58301 14.3003 1.58301 14.6846H2.58301ZM2.81934 13.1768L3.58327 13.8221L3.58338 13.8219L2.86523 13.126L2.14709 12.4301C2.1146 12.4636 2.08398 12.4976 2.0554 12.5315L2.81934 13.1768ZM2.86523 13.126L3.58317 13.8221C3.52269 13.8845 3.47754 13.872 3.61371 13.8412C3.77535 13.8047 4.00874 13.7796 4.44146 13.7362L4.3418 12.7412L4.24213 11.7462C3.86011 11.7845 3.48248 11.8205 3.17315 11.8903C2.83836 11.9659 2.4623 12.105 2.1473 12.4299L2.86523 13.126ZM4.3418 12.7412L4.44146 13.7362C5.18624 13.6616 5.85412 13.597 6.35819 13.4732C6.86076 13.3497 7.49766 13.0998 7.81749 12.4258L6.91406 11.9971L6.01064 11.5683C6.08843 11.4044 6.21584 11.4487 5.8811 11.5309C5.54786 11.6128 5.05063 11.6652 4.24213 11.7462L4.3418 12.7412ZM6.91406 11.9971L7.81763 12.4255C7.84879 12.3598 7.87376 12.2971 7.8941 12.2401L6.95215 11.9043L6.0102 11.5685L6.01049 11.5686L6.91406 11.9971ZM6.95215 11.9043L7.8942 12.2398C8.14448 11.5369 7.87068 10.91 7.60247 10.4676C7.33355 10.024 6.9069 9.50631 6.43311 8.92728L5.65918 9.56055L4.88525 10.1938C5.39983 10.8227 5.71436 11.211 5.89218 11.5044C6.0707 11.7988 5.9492 11.7398 6.0101 11.5688L6.95215 11.9043ZM5.65918 9.56055L6.43311 8.92728C6.15803 8.5911 6.01092 8.40824 5.92275 8.26841C5.84849 8.15066 5.8889 8.17335 5.88758 8.25951L4.8877 8.24414L3.88781 8.22877C3.88087 8.68055 4.04775 9.04458 4.23101 9.3352C4.40036 9.60375 4.64179 9.89628 4.88525 10.1938L5.65918 9.56055ZM4.8877 8.24414L5.88758 8.25955C5.88763 8.25609 5.88768 8.25365 5.88772 8.2519C5.88774 8.25104 5.88776 8.25041 5.88778 8.24998C5.88778 8.24977 5.88779 8.24961 5.88779 8.24951C5.8878 8.2494 5.8878 8.24935 5.8878 8.24935C5.8878 8.24935 5.8878 8.24941 5.88779 8.24951C5.88779 8.24962 5.88778 8.24978 5.88777 8.24999C5.88775 8.25042 5.88771 8.25106 5.88766 8.25191C5.88757 8.25359 5.88739 8.25618 5.88711 8.25954L4.89062 8.17578L3.89414 8.09202C3.88935 8.14904 3.88828 8.19874 3.88781 8.22873L4.8877 8.24414ZM4.89062 8.17578L5.88708 8.25994C5.87978 8.34637 5.83704 8.36505 5.92304 8.25486C6.025 8.12424 6.18981 7.95682 6.49715 7.64949L5.79004 6.94238L5.08293 6.23528C4.81123 6.50697 4.54173 6.77407 4.34643 7.0243C4.13518 7.29495 3.93225 7.64082 3.89417 8.09162L4.89062 8.17578ZM5.79004 6.94238L6.49715 7.64949L7.65047 6.49617L6.94336 5.78906L6.23625 5.08196L5.08293 6.23528L5.79004 6.94238ZM6.94336 5.78906L7.65047 6.49617C7.95771 6.18893 8.12501 6.02411 8.25568 5.92202C8.366 5.83582 8.34728 5.87866 8.26062 5.88604L8.17578 4.88965L8.09094 3.89325C7.64022 3.93163 7.2946 4.13487 7.02438 4.34598C6.77451 4.54119 6.50763 4.81058 6.23625 5.08196L6.94336 5.78906ZM8.17578 4.88965L8.26024 5.88608L8.26053 5.88562L8.24512 4.88574L8.22971 3.88586C8.17276 3.88674 8.12304 3.89053 8.09132 3.89322L8.17578 4.88965ZM8.24512 4.88574L8.26021 5.88563C8.17319 5.88694 8.1503 5.84615 8.26874 5.92097C8.40897 6.00956 8.59195 6.15697 8.92828 6.43215L9.56152 5.6582L10.1948 4.88425C9.8976 4.64111 9.60511 4.39953 9.33688 4.23009C9.04686 4.04688 8.68251 3.87902 8.23002 3.88586L8.24512 4.88574ZM9.56152 5.6582L8.92828 6.43215C9.50668 6.90541 10.0239 7.33177 10.4669 7.60061C10.9087 7.86865 11.5351 8.1429 12.2377 7.89362L11.9033 6.95117L11.569 6.00873C11.7401 5.948 11.799 6.06947 11.5044 5.89074C11.2112 5.71282 10.8232 5.39842 10.1948 4.88425L9.56152 5.6582ZM11.9033 6.95117L12.2384 7.89336C12.2995 7.87162 12.3632 7.84573 12.4272 7.81536L11.998 6.91211L11.5689 6.00886L11.5682 6.00898L11.9033 6.95117ZM11.998 6.91211L12.4273 7.81528C13.1007 7.49523 13.3503 6.85866 13.4736 6.35648C13.5972 5.85285 13.6617 5.18551 13.7362 4.4415L12.7412 4.3418L11.7462 4.2421C11.6652 5.05003 11.6129 5.54676 11.5312 5.87977C11.4491 6.21422 11.4049 6.08683 11.5688 6.00894L11.998 6.91211ZM12.7412 4.3418L13.7362 4.4415C13.7796 4.00898 13.8047 3.77551 13.8412 3.61381C13.872 3.47741 13.8846 3.52253 13.8222 3.58309L13.126 2.86523L12.4298 2.14738C12.105 2.4624 11.9659 2.83857 11.8904 3.17321C11.8205 3.48256 11.7845 3.86014 11.7462 4.2421L12.7412 4.3418ZM13.126 2.86523L13.822 3.58323C13.8258 3.57961 13.8282 3.57727 13.8301 3.57539C13.832 3.57358 13.8328 3.57283 13.8329 3.57275C13.8333 3.57243 13.829 3.57639 13.8216 3.58265L13.1768 2.81836L12.5319 2.05407C12.4847 2.09388 12.4454 2.13226 12.4299 2.14723L13.126 2.86523ZM13.1768 2.81836L13.8215 3.58273C13.755 3.63888 13.7112 3.6219 13.8499 3.60489C14.0144 3.58471 14.249 3.58301 14.6836 3.58301V2.58301V1.58301C14.3001 1.58301 13.9209 1.58118 13.6063 1.61977C13.266 1.66154 12.8779 1.76223 12.532 2.05398L13.1768 2.81836ZM14.6836 2.58301V3.58301H16.3154V2.58301V1.58301H14.6836V2.58301ZM15.5 10.333V9.33301C12.0942 9.33301 9.33301 12.0942 9.33301 15.5H10.333H11.333C11.333 13.1988 13.1988 11.333 15.5 11.333V10.333ZM10.333 15.5H9.33301C9.33301 18.9058 12.0942 21.667 15.5 21.667V20.667V19.667C13.1988 19.667 11.333 17.8012 11.333 15.5H10.333ZM15.5 20.667V21.667C18.9058 21.667 21.667 18.9058 21.667 15.5H20.667H19.667C19.667 17.8012 17.8012 19.667 15.5 19.667V20.667ZM20.667 15.5H21.667C21.667 12.0942 18.9058 9.33301 15.5 9.33301V10.333V11.333C17.8012 11.333 19.667 13.1988 19.667 15.5H20.667Z" fill="white"/>
</svg>
