<svg width="36" height="40" viewBox="0 0 36 40" fill="none" xmlns="http://www.w3.org/2000/svg">
<circle cx="17" cy="21" r="13" stroke="white"/>
<path d="M27.0872 12.4927C25.8964 13.5631 24.4009 14.4311 22.7047 15.0364C21.0085 15.6418 19.1522 15.9699 17.2649 15.998C15.3776 16.0261 13.5045 15.7535 11.7759 15.1992C10.0474 14.6449 8.50474 13.8221 7.25527 12.788" stroke="white"/>
<path d="M27.2736 30.6789C26.0717 29.5461 24.5346 28.6267 22.7774 27.9897C21.0203 27.3527 19.0886 27.0145 17.1272 27.0005C15.1658 26.9864 13.2255 27.2969 11.4516 27.9087C9.67775 28.5205 8.11631 29.4177 6.88429 30.533" stroke="white"/>
<path d="M17 8V34" stroke="white"/>
<path d="M30 21H4" stroke="white"/>
</svg>
