<svg width="25" height="22" viewBox="0 0 25 22" fill="none" xmlns="http://www.w3.org/2000/svg">
<mask id="path-1-inside-1_31_211" fill="white">
<path d="M11.1334 0.352227C11.1098 0.523245 11.0934 0.697392 11.0875 0.874413C11.0046 3.33086 12.6987 5.38147 14.8708 5.45472C17.0426 5.52758 18.8703 3.59587 18.9531 1.13965C18.9591 0.962634 18.9544 0.787774 18.9424 0.615558L24.7107 0.81007L24.5077 6.82813C22.6292 6.76479 21.0451 8.52906 20.9696 10.7687C20.8966 12.9384 22.2661 14.758 24.0597 14.927L24.2342 14.9388L24.0225 21.2174L4.67704 20.5651L4.89877 13.9897C4.49827 14.1667 4.06445 14.2586 3.61312 14.2434C1.7347 14.18 0.273153 12.3129 0.348484 10.0734C0.42401 7.83367 2.00809 6.06942 3.88662 6.13276C4.33779 6.14798 4.76477 6.26707 5.15232 6.47053L5.3652 0.157716L11.1334 0.352227Z"/>
</mask>
<path d="M11.1334 0.352227L13.1147 0.625414L13.4176 -1.57188L11.2008 -1.64664L11.1334 0.352227ZM11.0875 0.874413L9.0886 0.806936L9.0886 0.807008L11.0875 0.874413ZM14.8708 5.45472L14.8034 7.45358L14.8037 7.45359L14.8708 5.45472ZM18.9531 1.13965L20.952 1.20706L20.952 1.20698L18.9531 1.13965ZM18.9424 0.615558L19.0098 -1.38331L16.7931 -1.45806L16.9473 0.754594L18.9424 0.615558ZM24.7107 0.81007L26.7095 0.877474L26.7769 -1.12139L24.7781 -1.18879L24.7107 0.81007ZM24.5077 6.82813L24.4403 8.827L26.4392 8.8944L26.5066 6.89554L24.5077 6.82813ZM20.9696 10.7687L18.9707 10.7013L18.9707 10.7015L20.9696 10.7687ZM24.0597 14.927L23.8721 16.9182L23.8987 16.9207L23.9254 16.9225L24.0597 14.927ZM24.2342 14.9388L26.2331 15.0062L26.2983 13.0732L24.3685 12.9433L24.2342 14.9388ZM24.0225 21.2174L23.9551 23.2163L25.9539 23.2837L26.0214 21.2848L24.0225 21.2174ZM4.67704 20.5651L2.67817 20.4977L2.61077 22.4965L4.60963 22.5639L4.67704 20.5651ZM4.89877 13.9897L6.89763 14.0571L7.00504 10.8721L4.09022 12.1604L4.89877 13.9897ZM3.61312 14.2434L3.54571 16.2423L3.54572 16.2423L3.61312 14.2434ZM0.348484 10.0734L-1.65038 10.006L-1.65039 10.0061L0.348484 10.0734ZM3.88662 6.13276L3.95403 4.1339L3.95402 4.1339L3.88662 6.13276ZM5.15232 6.47053L4.22266 8.24133L7.0438 9.72242L7.15119 6.53794L5.15232 6.47053ZM5.3652 0.157716L5.4326 -1.84115L3.43374 -1.90855L3.36634 0.0903113L5.3652 0.157716ZM11.1334 0.352227L9.15215 0.0790405C9.12064 0.307586 9.09724 0.551083 9.0886 0.806936L11.0875 0.874413L13.0863 0.94189C13.0896 0.843702 13.099 0.738904 13.1147 0.625414L11.1334 0.352227ZM11.0875 0.874413L9.0886 0.807008C8.97656 4.12955 11.3037 7.33557 14.8034 7.45358L14.8708 5.45472L14.9382 3.45585C14.0938 3.42738 13.0327 2.53218 13.0863 0.941817L11.0875 0.874413ZM14.8708 5.45472L14.8037 7.45359C18.3032 7.571 20.8399 4.52906 20.952 1.20706L18.9531 1.13965L16.9542 1.07225C16.9006 2.66269 15.782 3.48416 14.9379 3.45584L14.8708 5.45472ZM18.9531 1.13965L20.952 1.20698C20.9606 0.951098 20.9536 0.706584 20.9376 0.476522L18.9424 0.615558L16.9473 0.754594C16.9553 0.868964 16.9575 0.97417 16.9542 1.07232L18.9531 1.13965ZM18.9424 0.615558L18.875 2.61442L24.6432 2.80893L24.7107 0.81007L24.7781 -1.18879L19.0098 -1.38331L18.9424 0.615558ZM24.7107 0.81007L22.7118 0.742665L22.5088 6.76073L24.5077 6.82813L26.5066 6.89554L26.7095 0.877474L24.7107 0.81007ZM24.5077 6.82813L24.5751 4.82927C21.2778 4.71808 19.0719 7.70141 18.9707 10.7013L20.9696 10.7687L22.9684 10.8362C23.0183 9.35672 23.9806 8.8115 24.4403 8.827L24.5077 6.82813ZM20.9696 10.7687L18.9707 10.7015C18.8725 13.6208 20.7442 16.6234 23.8721 16.9182L24.0597 14.927L24.2473 12.9358C23.788 12.8925 22.9207 12.256 22.9684 10.836L20.9696 10.7687ZM24.0597 14.927L23.9254 16.9225L24.0999 16.9342L24.2342 14.9388L24.3685 12.9433L24.194 12.9315L24.0597 14.927ZM24.2342 14.9388L22.2353 14.8714L22.0236 21.15L24.0225 21.2174L26.0214 21.2848L26.2331 15.0062L24.2342 14.9388ZM24.0225 21.2174L24.0899 19.2186L4.74444 18.5662L4.67704 20.5651L4.60963 22.5639L23.9551 23.2163L24.0225 21.2174ZM4.67704 20.5651L6.6759 20.6325L6.89763 14.0571L4.89877 13.9897L2.8999 13.9223L2.67817 20.4977L4.67704 20.5651ZM4.89877 13.9897L4.09022 12.1604C3.94717 12.2237 3.81172 12.2489 3.68052 12.2445L3.61312 14.2434L3.54572 16.2423C4.31719 16.2683 5.04936 16.1098 5.70732 15.819L4.89877 13.9897ZM3.61312 14.2434L3.68053 12.2445C3.22105 12.229 2.29759 11.6202 2.34735 10.1406L0.348484 10.0734L-1.65039 10.0061C-1.75128 13.0056 0.248358 16.1311 3.54571 16.2423L3.61312 14.2434ZM0.348484 10.0734L2.34735 10.1408C2.39724 8.66135 3.35948 8.11613 3.81922 8.13163L3.88662 6.13276L3.95402 4.1339C0.656694 4.02272 -1.54922 7.006 -1.65038 10.006L0.348484 10.0734ZM3.88662 6.13276L3.81922 8.13163C3.95581 8.13623 4.08934 8.17134 4.22266 8.24133L5.15232 6.47053L6.08199 4.69973C5.44021 4.3628 4.71976 4.15972 3.95403 4.1339L3.88662 6.13276ZM5.15232 6.47053L7.15119 6.53794L7.36406 0.22512L5.3652 0.157716L3.36634 0.0903113L3.15346 6.40313L5.15232 6.47053ZM5.3652 0.157716L5.2978 2.15658L11.066 2.35109L11.1334 0.352227L11.2008 -1.64664L5.4326 -1.84115L5.3652 0.157716Z" fill="white" mask="url(#path-1-inside-1_31_211)"/>
</svg>
