<svg width="41" height="41" viewBox="0 0 41 41" fill="none" xmlns="http://www.w3.org/2000/svg">
<path d="M19.5 22.7225V35.1043C19.1434 34.9039 18.7263 34.6086 18.1748 34.2146L10.2168 28.5301C9.39587 27.9437 8.98538 27.6501 8.76367 27.2195C8.54203 26.7888 8.54199 26.2841 8.54199 25.2752V15.7254C8.54199 15.4038 8.54263 15.1332 8.5498 14.9002L19.5 22.7225ZM32.4492 14.9012C32.4564 15.134 32.458 15.4042 32.458 15.7254V25.2752C32.458 26.2841 32.458 26.7888 32.2363 27.2195C32.0146 27.6501 31.6041 27.9437 30.7832 28.5301L22.8252 34.2146C22.2737 34.6086 21.8566 34.9039 21.5 35.1043V22.7234L32.4492 14.9012ZM20.5 5.58281C21.1409 5.58281 21.7025 5.98402 22.8252 6.78593L30.7832 12.4705C31.1115 12.705 31.3738 12.8931 31.585 13.0613L20.5 20.9783L9.41406 13.0613C9.62536 12.8929 9.88821 12.7052 10.2168 12.4705L18.1748 6.78593C19.2975 5.98402 19.8591 5.58281 20.5 5.58281Z" fill="white"/>
</svg>
