<svg width="29" height="29" viewBox="0 0 29 29" fill="none" xmlns="http://www.w3.org/2000/svg">
<path d="M4.83334 14.875C4.83334 12.9894 4.83334 12.0466 5.41912 11.4608C6.00491 10.875 6.94772 10.875 8.83334 10.875H10.4265C11.244 10.875 11.6527 10.875 12.0203 11.0272C12.3878 11.1795 12.6768 11.4685 13.2549 12.0466L14.5368 13.3284C15.1148 13.9065 15.4039 14.1955 15.7714 14.3478C16.1389 14.5 16.5477 14.5 17.3652 14.5H20.1667C22.0523 14.5 22.9951 14.5 23.5809 15.0858C24.1667 15.6716 24.1667 16.6144 24.1667 18.5V20.1667C24.1667 22.0523 24.1667 22.9951 23.5809 23.5809C22.9951 24.1667 22.0523 24.1667 20.1667 24.1667H8.83334C6.94772 24.1667 6.00491 24.1667 5.41912 23.5809C4.83334 22.9951 4.83334 22.0523 4.83334 20.1667V14.875Z" stroke="white" stroke-width="2"/>
<path d="M21.75 14.5V8.83334C21.75 6.94773 21.75 6.00492 21.1642 5.41913C20.5784 4.83334 19.6356 4.83334 17.75 4.83334H11.25C9.36438 4.83334 8.42157 4.83334 7.83579 5.41913C7.25 6.00492 7.25 6.94773 7.25 8.83334V10.875" stroke="white" stroke-width="2"/>
</svg>
