<svg width="24" height="24" viewBox="0 0 24 24" fill="none" xmlns="http://www.w3.org/2000/svg">
<path d="M13.6582 18.939C13.9344 19.0394 14.2409 19.0135 14.4961 18.8677L20.2519 15.5784C20.5852 15.3879 21 15.6286 21 16.0125V17.7093C21 17.8888 20.9039 18.0544 20.7481 18.1435L14.2012 21.8845C14.0736 21.9575 13.9204 21.9705 13.7822 21.9203L3.32913 18.1192C3.13153 18.0473 3 17.8595 3 17.6493V15.7768C3 15.4299 3.34479 15.1884 3.67088 15.307L13.6582 18.939ZM13.6582 13.939C13.9344 14.0394 14.2409 14.0135 14.4961 13.8677L20.2519 10.5784C20.5852 10.3879 21 10.6286 21 11.0125V12.557C21 12.7364 20.9038 12.9021 20.7481 12.9911L14.1065 16.7859C13.9789 16.8588 13.8256 16.8719 13.6875 16.8217L3.32912 13.0547C3.13153 12.9829 3 12.7951 3 12.5848V10.7768C3 10.4299 3.34479 10.1884 3.67088 10.307L13.6582 13.939ZM20.6709 6.87982C20.8685 6.95167 21 7.13946 21 7.34972V7.55698C21 7.73642 20.9038 7.9021 20.7481 7.99112L14.1065 11.7859C13.9789 11.8588 13.8256 11.8719 13.6875 11.8217L3.32912 8.05474C3.13153 7.98288 3 7.79509 3 7.58484V7.28966C3 7.11024 3.09614 6.94456 3.25193 6.85554L9.79882 3.11446C9.92642 3.04155 10.0796 3.02846 10.2178 3.07869L20.6709 6.87982Z" fill="white"/>
</svg>
