<svg width="36" height="36" viewBox="0 0 36 36" fill="none" xmlns="http://www.w3.org/2000/svg">
<path d="M17.2119 5.25C17.715 5.03439 18.285 5.03439 18.7881 5.25L28.2021 9.28418C29.0214 9.63528 29.51 10.4867 29.3994 11.3711L28.2861 20.2744C28.066 22.0356 27.1848 23.6479 25.8213 24.7842L19.2803 30.2344C18.5386 30.8525 17.4614 30.8525 16.7197 30.2344L10.1787 24.7842C8.81518 23.6479 7.93402 22.0356 7.71387 20.2744L6.60059 11.3711C6.49003 10.4867 6.97862 9.63528 7.79785 9.28418L17.2119 5.25Z" stroke="white" stroke-width="2" stroke-linecap="round"/>
<path d="M13.5 18L17.5687 22.0687C17.7918 22.2918 18.1633 22.2551 18.3383 21.9925L24 13.5" stroke="white" stroke-width="2" stroke-linecap="round"/>
</svg>
