<svg width="24" height="24" viewBox="0 0 24 24" fill="none" xmlns="http://www.w3.org/2000/svg">
<path d="M12.0003 2C12.8651 2.00004 13.6937 2.16874 14.4544 2.47461C13.9705 2.96131 13.5871 3.54745 13.3353 4.19922C12.9118 4.07036 12.4636 4.00003 12.0003 4C9.66339 4 7.69983 5.75743 7.44174 8.08008L7.18979 10.3457C7.18665 10.3739 7.18484 10.3908 7.18295 10.4072C7.03789 11.6713 6.62661 12.891 5.97592 13.9844C5.96753 13.9985 5.95907 14.0131 5.94467 14.0371L5.36654 15C5.0931 15.4557 4.92794 15.7334 4.83041 15.9404C4.82562 15.9506 4.82181 15.9606 4.81772 15.9697C4.82804 15.971 4.83917 15.9744 4.85092 15.9756C5.07864 15.9985 5.40164 16 5.93295 16H18.0677C18.5991 16 18.9221 15.9985 19.1497 15.9756C19.1611 15.9744 19.1719 15.9709 19.182 15.9697C19.1779 15.9608 19.175 15.9505 19.1703 15.9404C19.0727 15.7334 18.9076 15.4558 18.6341 15L18.056 14.0371C18.0416 14.0131 18.0331 13.9984 18.0247 13.9844C17.4543 13.0259 17.0675 11.9705 16.8831 10.873C17.2424 10.955 17.6163 11 18.0003 11C18.3171 11 18.6267 10.9685 18.9271 10.9121C19.0887 11.6323 19.3644 12.3239 19.7435 12.9609C19.7497 12.9713 19.7557 12.9825 19.7708 13.0078L20.349 13.9707C20.6 14.3891 20.8292 14.7682 20.9798 15.0879C21.1279 15.4023 21.2855 15.8286 21.2093 16.3115C21.134 16.7889 20.8884 17.2229 20.5179 17.5332C20.143 17.847 19.6958 17.931 19.3499 17.9658C18.9984 18.0012 18.5555 18 18.0677 18H5.93295C5.44518 18 5.00233 18.0012 4.65072 17.9658C4.3049 17.931 3.85778 17.847 3.48275 17.5332C3.11219 17.2229 2.86669 16.7889 2.79135 16.3115C2.71517 15.8285 2.87275 15.4024 3.02084 15.0879C3.17144 14.7682 3.40068 14.3891 3.6517 13.9707L4.22982 13.0078C4.24502 12.9825 4.25096 12.9714 4.25717 12.9609C4.76318 12.1106 5.08376 11.1627 5.19662 10.1797C5.19801 10.1676 5.1992 10.1545 5.20248 10.125L5.45443 7.85938C5.82507 4.52386 8.64429 2 12.0003 2ZM16.9828 4.2793C17.8285 5.25673 18.394 6.48957 18.5462 7.85938L18.5521 7.91992C18.3766 7.97029 18.192 7.99997 18.0003 8C17.3134 8 16.7071 7.65357 16.347 7.12598C16.2656 6.88312 16.1649 6.64986 16.0462 6.42773C16.0162 6.2899 16.0003 6.14684 16.0003 6C16.0003 5.26716 16.3949 4.62759 16.9828 4.2793Z" fill="white"/>
<path d="M9.10222 17.6647C9.27315 18.6215 9.64978 19.467 10.1737 20.0701C10.6976 20.6731 11.3396 21 12 21C12.6604 21 13.3024 20.6731 13.8263 20.0701C14.3502 19.467 14.7269 18.6215 14.8978 17.6647" stroke="white" stroke-width="2" stroke-linecap="round"/>
<circle cx="18" cy="6" r="2.5" fill="white" stroke="white"/>
</svg>
